<svg version="1.1" id="Layer_1" xmlns="http://www.w3.org/2000/svg" xmlns:xlink="http://www.w3.org/1999/xlink" x="0px" y="0px" viewBox="0 0 500 500" style="width: 166px;" xml:space="preserve" data-imageid="bran-stark-12" imageName="Bran Stark" class="illustrations_image">
<style type="text/css">
	.st0_bran-stark-12{fill:#FFFFFF;}
	.st1_bran-stark-12{fill:#093F68;}
	.st2_bran-stark-12{fill:#68E1FD;}
	.st3_bran-stark-12{fill:#725858;}
	.st4_bran-stark-12{fill:#FFC9B0;}
</style>
<g id="circle_bran-stark-12">
	<path class="st0_bran-stark-12" d="M429.1,250c0,64.9-35.1,124.8-91.8,156.4c-12,6.7-24.8,12-38,15.8c-1.3,0.4-2.7,0.8-4,1.1&#10;&#9;&#9;c-1,0.3-2,0.5-3.1,0.8c-13.8,3.3-28,5-42.2,5c-1.2,0-2.3,0-3.5,0c-13.2-0.2-26.4-1.9-39.2-5.1c-2.5-0.6-5-1.2-7.4-2&#10;&#9;&#9;c-1.8-0.5-3.6-1.1-5.3-1.6c-11.2-3.6-22-8.4-32.3-14.2C76,357.7,45.4,248.5,93.8,162.3S251.5,45.4,337.7,93.8&#10;&#9;&#9;C394.2,125.6,429.1,185.3,429.1,250z"/>
	<path class="st1_bran-stark-12" d="M250,431.1c-1.2,0-2.4,0-3.5,0c-13.4-0.2-26.7-2-39.6-5.2c-2.4-0.6-4.9-1.2-7.5-2c-1.8-0.5-3.6-1.1-5.4-1.7&#10;&#9;&#9;c-11.3-3.7-22.3-8.5-32.7-14.3c-57-32.1-92.3-92.5-92.4-157.9c0-99.9,81.2-181.1,181.1-181.1S431.1,150.1,431.1,250&#10;&#9;&#9;c0,65.6-35.6,126.1-92.8,158.1c-12.1,6.8-25,12.2-38.4,16c-1.3,0.4-2.7,0.8-4,1.1c-1,0.3-2.1,0.5-3.1,0.8&#10;&#9;&#9;C278.7,429.4,264.4,431.1,250,431.1z M250,72.8c-97.7,0-177.2,79.5-177.2,177.2c0.1,64,34.6,123.1,90.4,154.5&#10;&#9;&#9;c10.2,5.7,20.9,10.4,32,14c1.8,0.6,3.5,1.1,5.3,1.6c2.5,0.7,4.9,1.4,7.3,2c12.7,3.1,25.7,4.8,38.8,5c15.2,0.3,30.4-1.4,45.2-4.9&#10;&#9;&#9;c1-0.2,2-0.5,3-0.8c1.4-0.4,2.7-0.7,4-1.1c13.1-3.7,25.7-9,37.6-15.6c56-31.3,90.7-90.5,90.8-154.7&#10;&#9;&#9;C427.2,152.3,347.7,72.8,250,72.8L250,72.8z"/>
</g>
<g id="character_bran-stark-12">
	<path class="st1_bran-stark-12" d="M295.3,423.3c-1,0.3-2,0.5-3.1,0.8c-13.8,3.3-28,5-42.2,5c-1.2,0-2.3,0-3.5,0c-13.2-0.2-26.4-1.9-39.2-5.1&#10;&#9;&#9;c-2.5-0.6-5-1.2-7.4-2l2.8-11.7h89.6L295.3,423.3z"/>
	<path class="st1_bran-stark-12" d="M250,431.1c-1.2,0-2.4,0-3.5,0c-13.4-0.2-26.7-2-39.6-5.2c-2.4-0.6-4.9-1.2-7.5-2c-1-0.3-1.6-1.3-1.3-2.3&#10;&#9;&#9;l2.8-11.7c0.2-0.9,1-1.5,1.9-1.5h89.6c0.9,0,1.7,0.6,1.9,1.5l3.1,13c0.2,1-0.4,2-1.4,2.3c-1,0.3-2.1,0.5-3.1,0.8&#10;&#9;&#9;C278.7,429.4,264.4,431.1,250,431.1z M202.3,420.6c1.9,0.5,3.7,1,5.5,1.4c12.7,3.1,25.7,4.8,38.8,5c15.2,0.3,30.4-1.4,45.2-4.9&#10;&#9;&#9;l1.2-0.3l-2.3-9.6h-86.5L202.3,420.6z"/>
	<path class="st1_bran-stark-12" d="M337.3,406.4c-12,6.7-24.8,12-38,15.8c-1.3,0.4-2.7,0.8-4,1.1c-1,0.3-2,0.5-3.1,0.8v-97.4h36.2l0.9,8.3&#10;&#9;&#9;L337.3,406.4z"/>
	<path class="st1_bran-stark-12" d="M292.2,426.1c-1.1,0-2-0.9-2-2v-97.3c0-1.1,0.9-2,2-2h36.2c1,0,1.8,0.8,1.9,1.7l8.9,79.7&#10;&#9;&#9;c0.1,0.8-0.3,1.5-1,1.9c-12.1,6.8-25,12.2-38.4,16c-1.3,0.4-2.7,0.8-4,1.1c-1,0.3-2.1,0.5-3.1,0.8C292.5,426,292.4,426,292.2,426.1&#10;&#9;&#9;z M294.2,328.7v92.9l0.6-0.2c1.4-0.4,2.7-0.7,4-1.1c12.7-3.6,24.9-8.6,36.4-15l-8.5-76.7L294.2,328.7z"/>
	<path class="st1_bran-stark-12" d="M207.3,326.7V424c-2.5-0.6-5-1.2-7.4-2c-1.8-0.5-3.6-1.1-5.3-1.6c-11.2-3.6-22-8.4-32.3-14.2l7.1-64l1.7-15.4&#10;&#9;&#9;L207.3,326.7z"/>
	<path class="st1_bran-stark-12" d="M207.3,425.9c-0.2,0-0.3,0-0.4,0c-2.4-0.6-5-1.3-7.5-2c-1.8-0.5-3.6-1.1-5.4-1.7c-11.3-3.7-22.3-8.5-32.7-14.3&#10;&#9;&#9;c-0.7-0.4-1.1-1.1-1-1.9l8.8-79.5c0.1-1,0.9-1.7,1.9-1.7h36.2c1.1,0,2,0.9,1.9,2V424c0,0.6-0.3,1.2-0.7,1.5&#10;&#9;&#9;C208.2,425.8,207.7,425.9,207.3,425.9z M164.3,405.1c9.8,5.4,20.2,9.9,30.8,13.4c1.8,0.6,3.5,1.1,5.3,1.6s3.3,0.9,4.9,1.4v-92.8&#10;&#9;&#9;h-32.4L164.3,405.1z"/>
	<path class="st2_bran-stark-12 targetColor" d="M336.5,325.3l-7.2,9.8l-27.2,37l-2.6,50.1h-0.2v0.1c-1.3,0.4-2.7,0.8-4,1.1c-1,0.3-2,0.5-3.1,0.8&#10;&#9;&#9;c-13.8,3.3-28,5-42.2,5c-1.2,0-2.3,0-3.5,0c-13.2-0.2-26.4-1.9-39.2-5.1c-2.5-0.6-5-1.2-7.4-2c-1.8-0.5-3.6-1.1-5.3-1.6l-2.6-48.9&#10;&#9;&#9;l-22.6-29.4l-13-16.9c0,0,42.6-30,49.3-30h82.7C298.1,295.3,336.5,325.3,336.5,325.3z" style="fill: rgb(104, 225, 253);"/>
	<path class="st1_bran-stark-12" d="M250,431.1c-1.2,0-2.4,0-3.5,0c-13.4-0.2-26.7-2-39.6-5.2c-2.4-0.6-4.9-1.2-7.5-2c-1.8-0.5-3.6-1.1-5.4-1.7&#10;&#9;&#9;c-0.8-0.3-1.3-1-1.3-1.8l-2.6-48.2l-35.2-45.8c-0.3-0.4-0.5-1-0.4-1.5c0.1-0.5,0.4-1,0.8-1.3c7.2-5.1,43.4-30.3,50.4-30.3h82.7&#10;&#9;&#9;c10.1,0,45.3,27.3,49.3,30.4c0.8,0.7,1,1.8,0.4,2.7L304,372.7l-2.6,49.5c0,0.7-0.4,1.3-1,1.6c-0.2,0.1-0.4,0.3-0.6,0.3&#10;&#9;&#9;c-1.4,0.4-2.7,0.8-4.1,1.1c-1,0.3-2.1,0.5-3.1,0.8C278.7,429.4,264.4,431.1,250,431.1z M196.5,418.9c1.3,0.4,2.7,0.8,4,1.2&#10;&#9;&#9;c2.5,0.7,4.9,1.4,7.3,2c12.7,3.1,25.7,4.8,38.8,5c15.2,0.3,30.4-1.4,45.2-4.9c1-0.2,2-0.5,3-0.8s1.9-0.5,2.8-0.8l2.6-48.8&#10;&#9;&#9;c0-0.4,0.2-0.7,0.4-1l33.3-45.2c-15.3-11.8-39-28.4-45.4-28.4h-82.7c-4.1,0-29.1,16.2-46.5,28.4l34.4,44.6c0.2,0.3,0.4,0.7,0.4,1.1&#10;&#9;&#9;L196.5,418.9z"/>
	<path class="st1_bran-stark-12" d="M307.7,117.9c-9.9,0-15.8-9.1-16-9.5c-0.4-1,0.1-2.2,1.2-2.6c0.7-0.3,1.6-0.1,2.1,0.5l0,0&#10;&#9;&#9;c0,0.1,5,7.7,12.7,7.7c1.1-0.2,2.1,0.5,2.4,1.5c0.2,1.1-0.5,2.1-1.5,2.4C308.3,117.9,308,117.9,307.7,117.9L307.7,117.9z"/>
	<path class="st3_bran-stark-12" d="M190.9,262.3c3.9-1.5,5.1-6.4,5.7-10.6c2.6,6.2,8.6,10.3,15.3,10.4c2,0,4.1-0.4,5.4-2c0.9-1.3,1.4-2.9,1.4-4.5&#10;&#9;&#9;c1-11.7-4.9-42.5-22.7-38.7C179.7,220.5,189.4,252.4,190.9,262.3z"/>
	<path class="st1_bran-stark-12" d="M190.9,264.2c-1,0-1.8-0.7-1.9-1.7c-0.2-1.4-0.6-3.4-1.1-5.8c-2.8-13.4-7.9-38.4,7.7-41.7&#10;&#9;&#9;c4.7-1.1,9.7,0.2,13.3,3.5c9.7,8.5,12.5,28.8,11.8,37.2c0,2-0.7,3.9-1.8,5.6c-1.4,1.7-3.8,2.7-6.8,2.7l0,0c-5.6-0.1-11-2.7-14.5-7&#10;&#9;&#9;c-1,3.1-2.7,5.9-5.8,7.1C191.3,264.2,191.1,264.2,190.9,264.2z M196.5,249.7c0.8,0,1.5,0.5,1.8,1.2c2.3,5.5,7.6,9.1,13.5,9.2l0,0&#10;&#9;&#9;c1.1,0,2.9-0.2,3.8-1.2c0.6-1,1-2.2,0.9-3.4c0.7-8.2-2.2-26.6-10.5-33.9c-2.6-2.5-6.3-3.5-9.9-2.6c-11.8,2.5-7.2,25-4.7,37.1&#10;&#9;&#9;c0.2,1,0.4,1.9,0.6,2.8c1.4-1.9,2-4.8,2.4-7.4c0.1-0.9,0.8-1.5,1.7-1.7L196.5,249.7z"/>
	<path class="st3_bran-stark-12" d="M304.1,264.2c-2.4-4-4.2-8.3-5.5-12.8c-7.6,12.1-21.2,19-35.4,18.2c5.4-7.2,11-14.9,12.3-23.8&#10;&#9;&#9;c1-7.4-0.8-15.8,3.8-21.7c2.1-2.6,5-4.4,8.2-5.4c8-2.8,23.3-3.9,23.8,7.3C311.8,238.7,308.5,252.4,304.1,264.2z"/>
	<path class="st1_bran-stark-12" d="M265.5,271.7c-0.8,0-1.7,0-2.5-0.1c-1.1-0.1-1.9-1.1-1.8-2.2c0-0.3,0.2-0.6,0.3-0.9c5-6.7,10.7-14.2,11.9-22.9&#10;&#9;&#9;c0.3-2.3,0.4-4.5,0.4-6.8c0.1-5.5,0.2-11.2,3.8-15.8c2.4-2.8,5.5-4.9,9.1-6c6.6-2.3,16.3-3.1,21.9,0.6c2.8,1.9,4.5,5.1,4.6,8.5&#10;&#9;&#9;c0.7,14.6-3.6,29.2-7.2,38.9c-0.4,1-1.6,1.5-2.6,1.1c-0.4-0.2-0.7-0.4-0.9-0.7c-1.8-3-3.3-6.2-4.5-9.4&#10;&#9;&#9;C290.1,265.7,278.2,271.5,265.5,271.7z M298.3,218.8c-3.5,0-7,0.6-10.3,1.7c-2.8,0.8-5.3,2.5-7.3,4.8c-2.8,3.6-2.9,8.4-3,13.5&#10;&#9;&#9;c0,2.4-0.1,4.9-0.4,7.3c-1.2,8.2-5.9,15.5-10.4,21.7c12.2-0.6,23.3-7.1,29.9-17.4c0.4-0.7,1.2-1,1.9-0.9c0.8,0.1,1.4,0.7,1.6,1.4&#10;&#9;&#9;c0.9,2.9,2,5.8,3.3,8.6c3.1-9.1,6.1-21.3,5.5-33.3c0-2.2-1-4.2-2.9-5.4C304.4,219.4,301.5,218.8,298.3,218.8L298.3,218.8z"/>
	<path class="st4_bran-stark-12" d="M174.6,200.6c-1.6,9.6,1,19.4,7.2,26.9c3.2,3.8,7.7,7,12.7,7.2c2.3,0.1,4.8-0.5,6.1-2.5c0.6-1,0.9-2.1,1-3.2&#10;&#9;&#9;c1.2-8.4-0.9-21.2-6.3-28.2C189.6,193.4,176.9,187.4,174.6,200.6z"/>
	<path class="st1_bran-stark-12" d="M195,236.8h-0.6c-4.9-0.3-9.9-3.1-14.1-8c-6.6-7.9-9.4-18.3-7.7-28.5l0,0c1.1-6.4,4.5-8.6,7.1-9.2&#10;&#9;&#9;c5.9-1.4,13.1,3.3,17.1,8.6c5.8,7.5,7.9,21,6.7,29.7c-0.1,1.4-0.6,2.8-1.3,4C200.8,235.5,198.1,236.8,195,236.8z M176.5,201&#10;&#9;&#9;c-1.6,9,0.9,18.3,6.8,25.3c2,2.3,6.1,6.3,11.3,6.6c1.6,0.1,3.5-0.3,4.4-1.6c0.4-0.8,0.7-1.6,0.7-2.4c1.1-7.7-0.8-20.1-5.9-26.7&#10;&#9;&#9;c-3.2-4.2-9.1-8.1-13.1-7.2C178.5,195.5,177.1,197.5,176.5,201L176.5,201z"/>
	<path class="st4_bran-stark-12" d="M319.6,200.6c1.6,9.6-1,19.4-7.3,26.9c-3.2,3.8-7.7,7-12.7,7.2c-2.3,0.1-4.8-0.5-6.1-2.5c-0.6-1-0.9-2.1-1-3.2&#10;&#9;&#9;c-1.2-8.4,0.9-21.2,6.3-28.2C304.6,193.4,317.2,187.4,319.6,200.6z"/>
	<path class="st1_bran-stark-12" d="M299.2,236.8c-3.1,0-5.8-1.2-7.2-3.4c-0.7-1.2-1.2-2.6-1.3-4c-1.2-8.7,0.9-22.1,6.7-29.7&#10;&#9;&#9;c4.1-5.4,11.3-10,17.1-8.6c2.6,0.6,5.9,2.8,7.1,9.2l0,0c1.8,10.2-1.1,20.6-7.7,28.5c-4.1,4.9-9.1,7.7-14,7.9L299.2,236.8z&#10;&#9;&#9; M312.2,194.8c-3.9,0-8.9,3.6-11.8,7.3c-5.1,6.6-7,19-5.9,26.7c0.1,0.9,0.3,1.7,0.7,2.4c0.8,1.3,2.8,1.7,4.4,1.6&#10;&#9;&#9;c5.2-0.3,9.3-4.2,11.3-6.6c5.9-7,8.4-16.3,6.8-25.3l0,0c-0.6-3.5-2-5.6-4.2-6.1C313.1,194.8,312.7,194.8,312.2,194.8z"/>
	<path class="st4_bran-stark-12" d="M233.6,261.7h29.5l0,0v26.8c0,3.8-3.1,6.8-6.8,6.8h-15.8c-3.8,0-6.8-3.1-6.8-6.8L233.6,261.7L233.6,261.7z"/>
	<path class="st1_bran-stark-12" d="M249.7,297.3H247c-8.5,0-15.3-6.8-15.3-15.3v-20.3c0-1.1,0.9-2,2-2h29.5c1.1,0,2,0.9,2,2V282&#10;&#9;&#9;C265.1,290.5,258.2,297.3,249.7,297.3C249.7,297.3,249.7,297.3,249.7,297.3z M235.6,263.6V282c0,6.3,5.1,11.4,11.4,11.4h2.8&#10;&#9;&#9;c6.3,0,11.4-5.1,11.4-11.4v-18.4L235.6,263.6z"/>
	<path class="st4_bran-stark-12" d="M248.4,278.5L248.4,278.5c-27.5,0-50.3-25.3-52.4-58.1l-5.4-87.6h115.6l-5.4,87.6&#10;&#9;&#9;C298.7,253.2,275.9,278.5,248.4,278.5z"/>
	<path class="st1_bran-stark-12" d="M248.4,280.5c-28.4,0-52.2-26.3-54.3-59.9l-5.4-87.6c0-0.5,0.2-1.1,0.5-1.5c0.4-0.4,0.9-0.6,1.4-0.6h115.6&#10;&#9;&#9;c0.5,0,1.1,0.2,1.4,0.6c0.4,0.4,0.6,0.9,0.5,1.5l-5.4,87.6C300.6,254.2,276.8,280.5,248.4,280.5z M192.6,134.8l5.3,85.6&#10;&#9;&#9;c1.9,31.5,24.1,56.2,50.4,56.2s48.5-24.7,50.4-56.2l5.3-85.6H192.6z"/>
	<path class="st1_bran-stark-12" d="M248.9,223.6c-3.1,0-7.9-1.5-10.8-7.4c-4-8.1,7.3-29.7,8.6-32.1c0.7-0.8,2-0.9,2.8-0.2&#10;&#9;&#9;c0.6,0.5,0.8,1.3,0.6,2.1c-4.5,8.5-10.9,23.8-8.5,28.5c3,6,8,5.1,8.1,5.1c1-0.4,2.2,0,2.6,1.1c0.4,1,0,2.2-1.1,2.6&#10;&#9;&#9;c-0.3,0.1-0.6,0.2-0.8,0.2C249.9,223.5,249.4,223.6,248.9,223.6z"/>
	<path class="st1_bran-stark-12" d="M233.1,177.7c-0.3,0-0.5-0.1-0.8-0.2c-11.9-5.3-25.8,0-26,0c-0.9,0.6-2.2,0.4-2.8-0.6&#10;&#9;&#9;c-0.6-0.9-0.4-2.2,0.6-2.8c0.2-0.2,0.5-0.3,0.8-0.3c0.6-0.2,15.6-5.9,29,0c1,0.5,1.3,1.8,0.8,2.7&#10;&#9;&#9;C234.4,177.2,233.8,177.6,233.1,177.7L233.1,177.7z"/>
	<path class="st1_bran-stark-12" d="M261.8,177.7c-1.1-0.1-1.9-1.1-1.7-2.2c0.1-0.6,0.4-1.1,0.9-1.5c13.4-6,28.4-0.3,29,0c0.9,0.6,1.2,1.9,0.6,2.8&#10;&#9;&#9;c-0.4,0.6-1.2,1-2,0.9c-0.1-0.1-14.1-5.3-26,0C262.3,177.7,262.1,177.7,261.8,177.7z"/>
	<path class="st1_bran-stark-12" d="M268.1,240.6c-0.3,0-0.5-0.1-0.8-0.2c-12.4-5.4-33.5,0.1-33.8,0.1c-1,0.5-2.2,0.1-2.7-0.9&#10;&#9;&#9;c-0.5-1-0.1-2.2,0.9-2.7c0.3-0.1,0.5-0.2,0.8-0.2c0.9-0.2,22.6-5.8,36.3,0.1c1,0.5,1.3,1.7,0.8,2.7&#10;&#9;&#9;C269.4,240.1,268.8,240.5,268.1,240.6L268.1,240.6z"/>
	<path class="st3_bran-stark-12" d="M195.5,213.1c0,0-3.3-35.1,4.8-48.1c0,0,11-9.8,13.8-22.8c0,0,3.3,12.7,0,22.4c8.9-6.3,15.5-15.3,18.9-25.7&#10;&#9;&#9;c0,0,2.2,12.2-1.8,20.4c0,0,15.9-8.1,19.3-20.4c0,0,2.6,15.9-0.6,23.2c0,0,12.2-8.1,15.9-23.2c0,0,6.5,9.8,4.5,18.3&#10;&#9;&#9;c0,0,9-6.5,10.6-15.5c0,0,8.1,25.1,17.1,31.5c0,0,4.1,28,3.2,39.8c0,0,11.1-7.2,17.2-25.6c0,0-0.4,17-1.6,22.3c0,0,15.1-9,11-41.5&#10;&#9;&#9;s-21.6-55.4-42.7-68.8s-60.6-5.3-85.5,12.6s-30.1,50.9-31.8,68s3.7,33.4,10.6,39.5c0,0-6.9-19.1,0.4-32.2&#10;&#9;&#9;C178.8,187.3,181,209.1,195.5,213.1z"/>
	<path class="st1_bran-stark-12" d="M178.4,221.4c-0.5,0-0.9-0.2-1.3-0.5c-8-7-12.8-24.7-11.2-41.1c3.1-32.7,14.1-56,32.6-69.4&#10;&#9;&#9;C229.5,88,268.1,86.4,286,97.8c24.4,15.5,39.9,40.4,43.6,70.2c4.2,33.4-11.3,43.1-11.9,43.4c-1,0.5-2.2,0.2-2.7-0.8&#10;&#9;&#9;c-0.2-0.4-0.3-0.9-0.2-1.3c0.6-3.7,1-7.5,1.2-11.2c-6.1,11.5-13.3,16.4-13.7,16.6c-0.9,0.6-2.1,0.3-2.7-0.6&#10;&#9;&#9;c-0.2-0.4-0.3-0.8-0.3-1.2c0.8-10.4-2.4-34-3.1-38.6c-6.5-5.3-12.4-19-15.2-26.6c-2.3,4.4-5.5,8.2-9.5,11.1&#10;&#9;&#9;c-0.9,0.6-2.2,0.3-2.8-0.6c-0.3-0.4-0.4-0.9-0.3-1.4c1.1-4.5-0.6-9.5-2.1-12.8c-3.1,7.9-8.4,14.8-15.3,19.8c-1,0.5-2.2,0.2-2.7-0.7&#10;&#9;&#9;c-0.3-0.5-0.3-1.1-0.1-1.7c1.6-3.6,1.6-10.1,1.2-15.3c-5.9,9.1-16.7,14.7-17.3,15c-1,0.4-2.2,0-2.6-1c-0.2-0.5-0.2-1.1,0-1.6&#10;&#9;&#9;c1.5-3.5,2.3-7.3,2.2-11.2c-3.9,7.6-9.6,14.1-16.5,19c-1,0.5-2.2,0.2-2.7-0.8c-0.3-0.5-0.3-1-0.2-1.5c1.5-4.4,1.5-9.6,1.2-13.7&#10;&#9;&#9;c-2.9,6-6.8,11.4-11.6,16c-7.5,12.5-4.4,46.3-4.4,46.7c0.1,1.1-0.8,2.1-1.9,2.1c-0.2,0-0.4,0-0.6-0.1&#10;&#9;&#9;c-10.3-2.8-14.9-13.4-16.9-20.6c-2.6,11.3,2,24.3,2,24.5c0.3,0.8,0,1.8-0.7,2.3C179.1,221.4,178.7,221.5,178.4,221.4z M178.8,185.4&#10;&#9;&#9;c0.1,0,0.3,0,0.4,0c0.8,0.2,1.5,0.9,1.5,1.7c0,0.2,1.9,17.6,12.6,23c-0.6-9-1.7-35,5.4-46.2c0.1-0.2,0.2-0.3,0.4-0.4&#10;&#9;&#9;c0.1-0.1,10.6-9.5,13.2-21.8c0.2-0.9,1-1.5,1.9-1.5c0.9,0,1.7,0.6,1.9,1.5c1.4,5.9,1.8,11.9,1.2,17.9c6.4-5.8,11.3-13.1,14-21.3&#10;&#9;&#9;c0.4-1,1.6-1.5,2.6-1.1c0.6,0.2,1,0.7,1.2,1.3c0.9,5.4,0.8,10.9-0.2,16.2c4.7-3.2,11.8-9.1,13.9-16.4c0.4-1,1.5-1.6,2.6-1.2&#10;&#9;&#9;c0.6,0.2,1.1,0.7,1.2,1.4c0.1,0.5,1.7,10.2,0.8,18.1c5.2-5,8.9-11.3,10.7-18.3c0.3-1.1,1.4-1.7,2.5-1.3c0.4,0.1,0.8,0.4,1,0.7&#10;&#9;&#9;c0.2,0.4,4.7,7.2,5.2,14.7c2.5-2.6,5.5-6.5,6.4-11.1c0.3-1.1,1.4-1.7,2.4-1.4c0.6,0.2,1.1,0.6,1.3,1.2c0.1,0.2,8,24.5,16.4,30.5&#10;&#9;&#9;c0.4,0.3,0.7,0.8,0.8,1.3c0.1,1,3.3,22.7,3.3,35.8c3.6-3.5,9.4-10.5,13.2-21.9c0.5-1,1.6-1.4,2.7-1c0.7,0.3,1.1,0.9,1.2,1.7&#10;&#9;&#9;c0,0.5-0.2,9.9-0.9,16.8c3.8-5,8.9-15.7,6.4-35.9c-3.6-28.6-18.4-52.5-41.8-67.4c-21-13.3-60-4.2-83.3,12.6&#10;&#9;&#9;c-17.5,12.7-27.9,35-30.9,66.6c-1.1,11.2,1,21.9,4.3,29.3c-1-6.9-1.1-15.8,3.1-23.2C177.4,185.8,178.1,185.4,178.8,185.4&#10;&#9;&#9;L178.8,185.4z"/>
	<circle class="st1_bran-stark-12" cx="221.9" cy="191.6" r="4.9"/>
	<circle class="st1_bran-stark-12" cx="275.5" cy="191.6" r="4.9"/>
	<path class="st1_bran-stark-12" d="M174.1,136c-1.1-0.1-1.9-1.1-1.8-2.2c0.1-0.6,0.4-1.2,0.9-1.5c9.4-5,17.9-15.6,18-15.7c0.4-1,1.6-1.5,2.6-1.1&#10;&#9;&#9;s1.5,1.6,1.1,2.6c-0.1,0.3-0.4,0.6-0.7,0.9c-0.4,0.4-9,11.3-19.2,16.7C174.7,135.9,174.4,136,174.1,136z"/>
	<path class="st1_bran-stark-12" d="M322.5,130.7c-9.9,0-15.8-9.1-16-9.5c-0.8-0.8-0.8-2.1,0-2.8s2.1-0.8,2.8,0c0.2,0.2,0.4,0.5,0.5,0.7&#10;&#9;&#9;c0.1,0.2,5,7.7,12.7,7.7c1.1,0.2,1.8,1.3,1.5,2.4C323.8,129.9,323.2,130.5,322.5,130.7L322.5,130.7z"/>
	<rect x="226.8" y="286.2" class="st2_bran-stark-12 targetColor" width="43.9" height="9.1" style="fill: rgb(104, 225, 253);"/>
	<path class="st1_bran-stark-12" d="M270.6,297.3h-43.9c-1.1,0-1.9-0.9-1.9-2v-9.1c0-1.1,0.9-2,1.9-2h43.9c1.1,0,2,0.9,2,2v9.1&#10;&#9;&#9;C272.6,296.4,271.7,297.3,270.6,297.3z M228.8,293.4h40v-5.2h-40V293.4z"/>
	<path class="st1_bran-stark-12" d="M192,373.5c-1,0-1.9-0.8-1.9-1.9c0-0.4-1.2-35.1-1.4-52.4c0-1.1,0.8-2,1.9-2c1.1,0,2,0.8,2,1.8&#10;&#9;&#9;c0,0,0,0.1,0,0.1c0.3,17.3,1.4,52,1.4,52.3C194,372.5,193.1,373.4,192,373.5L192,373.5z"/>
	<path class="st1_bran-stark-12" d="M302.1,374H302c-1.1-0.1-1.9-1-1.8-2.1l4-52.8c-0.2-1.1,0.6-2.1,1.7-2.3s2.1,0.6,2.3,1.7c0,0.3,0,0.6-0.1,0.9&#10;&#9;&#9;l-4,52.8C304,373.2,303.2,374,302.1,374z"/>
	<path class="st1_bran-stark-12" d="M246.5,431c-1.1,0-2-0.9-1.9-2V295.3c0.2-1.1,1.3-1.8,2.4-1.5c0.8,0.2,1.4,0.8,1.5,1.5v133.7&#10;&#9;&#9;C248.4,430.1,247.6,431,246.5,431z"/>
	<path class="st1_bran-stark-12" d="M246.5,319.9c-0.2,0-0.5,0-0.7-0.1l-8.8-3.2c-1.1-0.2-1.9-1.2-1.7-2.3c0.2-1.1,1.2-1.9,2.3-1.7&#10;&#9;&#9;c0.3,0,0.6,0.1,0.8,0.3l8.1,3l8.1-3c1-0.4,2.1,0.1,2.5,1.1c0,0,0,0,0,0c0.3,1-0.2,2.1-1.2,2.5l-8.8,3.2&#10;&#9;&#9;C247,319.8,246.7,319.9,246.5,319.9z"/>
	<path class="st1_bran-stark-12" d="M246.5,335c-0.2,0-0.5,0-0.7-0.1l-8.8-3.3c-1.1-0.1-1.9-1.1-1.7-2.2c0.1-1.1,1.1-1.9,2.2-1.7&#10;&#9;&#9;c0.3,0,0.6,0.1,0.8,0.3l8.1,3l8.1-3c0.9-0.6,2.2-0.3,2.8,0.6c0.6,0.9,0.3,2.2-0.6,2.8c-0.3,0.2-0.5,0.3-0.8,0.3l-8.8,3.3&#10;&#9;&#9;C247,335,246.7,335,246.5,335z"/>
	<path class="st1_bran-stark-12" d="M246.5,350.1c-0.2,0-0.5,0-0.7-0.1l-8.8-3.3c-1.1-0.2-1.9-1.2-1.7-2.3c0.2-1.1,1.2-1.9,2.3-1.7&#10;&#9;&#9;c0.3,0,0.6,0.1,0.8,0.3l8.1,3l8.1-3c1.1-0.2,2.1,0.6,2.3,1.7c0.1,0.8-0.2,1.5-0.9,2l-8.8,3.3C246.9,350.1,246.7,350.1,246.5,350.1z&#10;&#9;&#9;"/>
	<path class="st1_bran-stark-12" d="M246.5,365.2c-0.2,0-0.5,0-0.7-0.1l-8.8-3.2c-1.1-0.2-1.9-1.2-1.7-2.3c0.2-1.1,1.2-1.9,2.3-1.7&#10;&#9;&#9;c0.3,0,0.6,0.1,0.8,0.3l8.1,3l8.1-3c1-0.4,2.1,0.1,2.5,1.1c0,0,0,0,0,0c0.3,1-0.2,2.1-1.2,2.5l-8.8,3.2&#10;&#9;&#9;C247,365.2,246.7,365.2,246.5,365.2z"/>
	<path class="st1_bran-stark-12" d="M246.5,380.4c-0.2,0-0.5,0-0.7-0.1L237,377c-1.1-0.1-1.9-1.1-1.7-2.2c0.1-1.1,1.1-1.9,2.2-1.7&#10;&#9;&#9;c0.3,0,0.6,0.1,0.8,0.3l8.1,3l8.1-3c0.9-0.6,2.2-0.3,2.8,0.6c0.6,0.9,0.3,2.2-0.6,2.8c-0.3,0.2-0.5,0.3-0.8,0.3l-8.8,3.3&#10;&#9;&#9;C247,380.3,246.7,380.4,246.5,380.4z"/>
	<path class="st1_bran-stark-12" d="M246.5,395.5c-0.2,0-0.5,0-0.7-0.1l-8.8-3.3c-1.1-0.2-1.9-1.2-1.7-2.3c0.2-1.1,1.2-1.9,2.3-1.7&#10;&#9;&#9;c0.3,0,0.6,0.1,0.8,0.3l8.1,3l8.1-3c1.1-0.2,2.1,0.6,2.3,1.7c0.1,0.8-0.2,1.5-0.9,2l-8.8,3.3C247,395.5,246.7,395.5,246.5,395.5z"/>
	<path class="st1_bran-stark-12" d="M246.5,410.6c-0.2,0-0.5,0-0.7-0.1l-8.8-3.2c-1.1-0.2-1.9-1.2-1.7-2.3c0.2-1.1,1.2-1.9,2.3-1.7&#10;&#9;&#9;c0.3,0,0.6,0.1,0.8,0.3l8.1,3l8.1-3c1.1-0.2,2.1,0.6,2.3,1.7c0.1,0.8-0.2,1.5-0.9,2l-8.8,3.2C247,410.6,246.7,410.6,246.5,410.6z"/>
	<path class="st1_bran-stark-12" d="M246.5,425.8c-0.2,0-0.5,0-0.7-0.1l-8.8-3.3c-1.1-0.1-1.9-1.1-1.7-2.2c0.1-1.1,1.1-1.9,2.2-1.7&#10;&#9;&#9;c0.3,0,0.6,0.1,0.8,0.3l8.1,3l8.1-3c0.9-0.6,2.2-0.3,2.8,0.6c0.6,0.9,0.3,2.2-0.6,2.8c-0.3,0.2-0.5,0.3-0.8,0.3l-8.8,3.3&#10;&#9;&#9;C247,425.7,246.7,425.8,246.5,425.8z"/>
</g>
</svg>